<?xml version="1.0" encoding="utf-8"?>
<!-- Generator: Adobe Illustrator 16.0.0, SVG Export Plug-In . SVG Version: 6.00 Build 0)  -->
<!DOCTYPE svg PUBLIC "-//W3C//DTD SVG 1.1//EN" "http://www.w3.org/Graphics/SVG/1.1/DTD/svg11.dtd">
<svg version="1.1" id="Capa_1" xmlns="http://www.w3.org/2000/svg" xmlns:xlink="http://www.w3.org/1999/xlink" x="0px" y="0px"
	 width="150px" height="250px" viewBox="0 0 150 250" enable-background="new 0 0 150 250" xml:space="preserve">
<path fill="#FFFFFF" stroke="#F13A62" stroke-width="18" stroke-miterlimit="10" d="M130.943,195.928
	c0,23.029-18.946,42.191-42.927,42.191H62.97c-23.98,0-43.913-19.162-43.913-42.191V53.086c0-23.029,19.933-41.205,43.913-41.205
	h25.047c23.98,0,42.927,18.176,42.927,41.205V195.928z"/>
<rect x="47.398" y="91.729" fill="#F13A62" width="55.204" height="66.54"/>
<path fill="#25337A" d="M30.64,72.753c0-8.847,19.86-16.019,44.36-16.019c24.501,0,44.36,7.172,44.36,16.019v-0.246l-16.758,19.223
	H47.398L30.64,72.507"/>
<path fill="#25337A" d="M75,72.753"/>
<path fill="#25337A" d="M102.603,158.27H47.398L30.64,177.984c0,11.336,19.86,21.113,44.36,21.113
	c24.501,0,44.36-9.777,44.36-21.113L102.603,158.27z"/>
</svg>
