<?xml version="1.0" encoding="utf-8"?>
<!-- Generator: Adobe Illustrator 16.0.0, SVG Export Plug-In . SVG Version: 6.00 Build 0)  -->
<!DOCTYPE svg PUBLIC "-//W3C//DTD SVG 1.1//EN" "http://www.w3.org/Graphics/SVG/1.1/DTD/svg11.dtd">
<svg version="1.1" id="Capa_1" xmlns="http://www.w3.org/2000/svg" xmlns:xlink="http://www.w3.org/1999/xlink" x="0px" y="0px"
	 width="256px" height="256px" viewBox="0 0 256 256" enable-background="new 0 0 256 256" xml:space="preserve">
<path fill="#F13A62" d="M251,214.945C251,235.41,234.41,252,213.945,252H41.055C20.59,252,4,235.41,4,214.945V42.055
	C4,21.59,20.59,5,41.055,5h172.891C234.41,5,251,21.59,251,42.055V214.945z"/>
<path fill="none" stroke="#FFFFFF" stroke-width="25" stroke-miterlimit="10" d="M219.5,209.496c0,6.077-4.927,11.004-11.004,11.004
	H46.504c-6.077,0-11.004-4.927-11.004-11.004V47.504c0-6.077,4.927-11.004,11.004-11.004h161.992
	c6.077,0,11.004,4.927,11.004,11.004V209.496z"/>
</svg>
