<?xml version="1.0" encoding="utf-8"?>
<!-- Generator: Adobe Illustrator 16.0.0, SVG Export Plug-In . SVG Version: 6.00 Build 0)  -->
<!DOCTYPE svg PUBLIC "-//W3C//DTD SVG 1.1//EN" "http://www.w3.org/Graphics/SVG/1.1/DTD/svg11.dtd">
<svg version="1.1" id="Capa_1" xmlns="http://www.w3.org/2000/svg" xmlns:xlink="http://www.w3.org/1999/xlink" x="0px" y="0px"
	 width="256px" height="256px" viewBox="0 0 256 256" enable-background="new 0 0 256 256" xml:space="preserve">
<g>
	<path fill-rule="evenodd" clip-rule="evenodd" fill="#FFFFFF" d="M93.095,155.98c3.416,0,6.443,0.404,9.327-0.071
		c11.333-1.87,20.292,1.8,27.434,10.692c2.063,2.569,4.787,4.614,7.232,6.871c6.806,6.276,13.626,12.539,21.051,19.369
		c0-41.564,0-82.205,0-123.47c-1.761,1.476-3.057,2.473-4.254,3.579c-10.027,9.255-20.278,18.286-29.934,27.914
		c-4.036,4.025-8.096,5.6-13.609,5.212c-5.716-0.402-11.481-0.09-17.247-0.09C93.095,122.942,93.095,139.08,93.095,155.98z"/>
	<path fill-rule="evenodd" clip-rule="evenodd" fill="#FFFFFF" d="M93.095,155.98c0-16.9,0-33.038,0-49.994
		c5.765,0,11.531-0.313,17.247,0.09c5.514,0.388,9.573-1.188,13.609-5.212c9.655-9.628,19.906-18.659,29.934-27.914
		c1.197-1.105,2.493-2.103,4.254-3.579c0,41.265,0,81.905,0,123.47c-7.425-6.83-14.245-13.093-21.051-19.369
		c-2.445-2.257-5.169-4.302-7.232-6.871c-7.142-8.893-16.101-12.563-27.434-10.692C99.539,156.385,96.511,155.98,93.095,155.98z"/>
</g>
</svg>
