<?xml version="1.0" encoding="utf-8"?>
<!-- Generator: Adobe Illustrator 16.0.0, SVG Export Plug-In . SVG Version: 6.00 Build 0)  -->
<!DOCTYPE svg PUBLIC "-//W3C//DTD SVG 1.1//EN" "http://www.w3.org/Graphics/SVG/1.1/DTD/svg11.dtd">
<svg version="1.1" id="Capa_1" xmlns="http://www.w3.org/2000/svg" xmlns:xlink="http://www.w3.org/1999/xlink" x="0px" y="0px"
	 width="256px" height="256px" viewBox="0 0 256 256" enable-background="new 0 0 256 256" xml:space="preserve">
<g>
	<path fill-rule="evenodd" clip-rule="evenodd" fill="#FFFFFF" d="M126.373,144.434c-2.244-0.746-3.753-1.546-5.332-1.718
		c-6.21-0.675-12.553-2.159-18.642-1.49c-12.159,1.337-20.919,12.152-20.89,24.194c0.029,12.173,7.488,20.502,19.894,22.217
		c16.732,2.313,31.93-7.466,34.372-22.326c0.699-4.25,0.983-8.611,0.999-12.923c0.09-25.311,0.044-50.623,0.044-75.935
		c0-1.789,0-3.579,0-5.84c8.306-0.207,15.753,0.723,22.311,5.274c7.143,4.958,7.745,12.676,7.851,20.636c3.425,0,6.484,0,10.584,0
		c-0.725-8.262-0.883-16.244-2.24-24.017c-1.868-10.703-7.972-18.625-18.416-22.433c-9.737-3.55-19.888-2.44-30.534-2.54
		C126.373,80.083,126.373,111.963,126.373,144.434z"/>
	<path fill-rule="evenodd" clip-rule="evenodd" fill="#FFFFFF" d="M126.373,144.434c0-32.47,0-64.35,0-96.898
		c10.646,0.1,20.797-1.011,30.534,2.54c10.444,3.807,16.548,11.73,18.416,22.433c1.357,7.772,1.516,15.755,2.24,24.017
		c-4.1,0-7.159,0-10.584,0c-0.105-7.96-0.708-15.679-7.851-20.636c-6.558-4.552-14.005-5.481-22.311-5.274c0,2.261,0,4.051,0,5.84
		c0,25.312,0.046,50.624-0.044,75.935c-0.016,4.312-0.3,8.673-0.999,12.923c-2.442,14.86-17.64,24.639-34.372,22.326
		c-12.406-1.715-19.865-10.044-19.894-22.217c-0.029-12.042,8.731-22.857,20.89-24.194c6.089-0.669,12.432,0.815,18.642,1.49
		C122.62,142.888,124.129,143.688,126.373,144.434z"/>
</g>
</svg>
