<?xml version="1.0" encoding="utf-8"?>
<!-- Generator: Adobe Illustrator 16.0.0, SVG Export Plug-In . SVG Version: 6.00 Build 0)  -->
<!DOCTYPE svg PUBLIC "-//W3C//DTD SVG 1.1//EN" "http://www.w3.org/Graphics/SVG/1.1/DTD/svg11.dtd">
<svg version="1.1" id="Capa_1" xmlns="http://www.w3.org/2000/svg" xmlns:xlink="http://www.w3.org/1999/xlink" x="0px" y="0px"
	 width="256px" height="256px" viewBox="0 0 256 256" enable-background="new 0 0 256 256" xml:space="preserve">
<g>
	<path fill-rule="evenodd" clip-rule="evenodd" fill="#FFFFFF" d="M59.724,113.661c0.718,1.082,0.923,1.551,1.264,1.88
		c6.708,6.474,13.447,12.914,20.146,19.398c4.295,4.156,10.597,7.703,12.229,12.744c1.703,5.256-1.055,11.988-1.979,18.058
		c-1.467,9.642-3.031,19.27-4.715,29.925c10.416-5.596,20.442-9.906,29.239-15.994c9.784-6.77,17.998-6.576,27.818-0.098
		c8.896,5.868,18.985,9.927,29.365,15.197c-2.733-14.866-5.188-28.745-7.892-42.575c-0.738-3.772-0.184-6.51,2.814-9.237
		c6.155-5.597,11.908-11.635,17.855-17.46c4.222-4.135,8.492-8.22,13.572-13.132c-15.535-2.089-29.504-4.104-43.515-5.77
		c-4.076-0.484-6.285-2.156-8.082-5.9c-6.094-12.702-12.641-25.184-19.384-38.477c-6.578,13.624-12.93,26.419-18.903,39.39
		c-1.59,3.454-3.566,4.96-7.318,5.484C88.273,109.046,74.357,111.368,59.724,113.661z"/>
	<path fill-rule="evenodd" clip-rule="evenodd" fill="#FFFFFF" d="M59.724,113.661c14.633-2.293,28.549-4.615,42.517-6.567
		c3.752-0.524,5.728-2.031,7.318-5.484c5.973-12.97,12.325-25.766,18.903-39.39c6.743,13.292,13.29,25.775,19.384,38.477
		c1.797,3.745,4.006,5.417,8.082,5.9c14.011,1.666,27.979,3.681,43.515,5.77c-5.08,4.913-9.351,8.997-13.572,13.132
		c-5.947,5.825-11.7,11.863-17.855,17.46c-2.998,2.728-3.553,5.465-2.814,9.237c2.703,13.83,5.158,27.709,7.892,42.575
		c-10.38-5.271-20.47-9.329-29.365-15.197c-9.82-6.479-18.034-6.672-27.818,0.098c-8.797,6.088-18.823,10.398-29.239,15.994
		c1.684-10.655,3.248-20.283,4.715-29.925c0.924-6.069,3.681-12.802,1.979-18.058c-1.633-5.041-7.934-8.588-12.229-12.744
		c-6.698-6.484-13.438-12.924-20.146-19.398C60.647,115.212,60.442,114.742,59.724,113.661z"/>
</g>
</svg>
